<?xml version="1.0" standalone="no"?><!DOCTYPE svg PUBLIC "-//W3C//DTD SVG 1.1//EN" "http://www.w3.org/Graphics/SVG/1.1/DTD/svg11.dtd"><svg t="1782292794080" class="icon" viewBox="0 0 1024 1024" version="1.1" xmlns="http://www.w3.org/2000/svg" p-id="5070" xmlns:xlink="http://www.w3.org/1999/xlink" width="64" height="64"><path d="M512 512m-512 0a512 512 0 1 0 1024 0 512 512 0 1 0-1024 0Z" fill="#0090FF" p-id="5071"></path><path d="M724.48 652.8c-17.92-30.72-56.32-92.16-58.88-97.28-5.12-7.68-17.92-35.84-40.96-43.52H614.4l-92.16 128c87.04 5.12 130.56 74.24 130.56 122.88h51.2s5.12 0 33.28-48.64c10.24-25.6 0-38.4-12.8-61.44m-212.48 20.48c-58.88 0-107.52 38.4-107.52 89.6h217.6c-2.56-51.2-51.2-89.6-110.08-89.6m-12.8-30.72l94.72-135.68c-20.48-5.12-48.64-10.24-81.92-10.24-2.56 0-61.44-5.12-120.32 23.04 0 0-7.68 0-23.04 23.04-23.04 38.4-58.88 92.16-69.12 112.64-7.68 12.8-25.6 35.84-12.8 61.44s25.6 43.52 28.16 48.64h56.32c0-46.08 38.4-117.76 128-122.88m12.8-163.84c56.32 0 102.4-51.2 102.4-112.64 0-61.44-46.08-112.64-102.4-112.64s-102.4 51.2-102.4 112.64c0 61.44 46.08 112.64 102.4 112.64" fill="#FFFFFF" p-id="5072"></path></svg>